<svg width="41" height="26" viewBox="0 0 41 26" fill="none" xmlns="http://www.w3.org/2000/svg">
<g clip-path="url(#clip0_21_8171)">
<path opacity="0.07" d="M37.4484 0.120117H3.85094C2.06607 0.120117 0.701172 1.48501 0.701172 3.26988V22.1685C0.701172 23.9533 2.17106 25.3182 3.85094 25.3182H37.4484C39.2333 25.3182 40.5982 23.9533 40.5982 22.1685V3.26988C40.5982 1.48501 39.1283 0.120117 37.4484 0.120117Z" fill="black"/>
<path d="M37.4483 1.16968C38.6032 1.16968 39.5481 2.11461 39.5481 3.26952V22.1681C39.5481 23.323 38.6032 24.2679 37.4483 24.2679H3.85082C2.69591 24.2679 1.75098 23.323 1.75098 22.1681V3.26952C1.75098 2.11461 2.69591 1.16968 3.85082 1.16968H37.4483Z" fill="#006FCF"/>
<path d="M10.12 10.9005L10.9327 12.8702H9.3137L10.12 10.9005ZM26.9975 10.9824H23.8719V11.8507H26.9471V13.1515H23.8782V14.1196H27.0038V14.8955L29.1845 12.5384L27.0038 10.0816L26.9975 10.9824ZM12.2325 8.52559H16.4269L17.3582 10.5572L18.2212 8.51929H29.1089L30.2407 9.76869L31.4114 8.51929H36.4122L32.7175 12.5636L36.3744 16.5827H31.299L30.1672 15.3333L28.9861 16.5827H11.2319L10.7132 15.3333H9.52683L9.00712 16.5827H4.90088L8.35092 8.51929H11.9521L12.2325 8.52559ZM21.3279 9.6574H18.9772L17.4023 13.3699L15.6962 9.6574H13.3632V14.7075L11.2004 9.6574H9.10791L6.607 15.4446H8.23963L8.75829 14.1952H11.4839L12.0025 15.4446H14.8583V11.3131L16.6967 15.4509H17.9461L19.773 11.3257V15.4519H21.3038L21.329 9.65635L21.3279 9.6574ZM31.1342 12.5636L33.7916 9.6574H31.8786L30.1977 11.4696L28.5724 9.6574H22.3842V15.4509H28.4842L30.1788 13.6261L31.8041 15.4509H33.7727L31.1342 12.5636Z" fill="white"/>
</g>
<defs>
<clipPath id="clip0_21_8171">
<rect width="39.897" height="25.1981" fill="white" transform="translate(0.701172 0.120117)"/>
</clipPath>
</defs>
</svg>
