<svg width="41" height="26" viewBox="0 0 41 26" fill="none" xmlns="http://www.w3.org/2000/svg">
<g clip-path="url(#clip0_21_8178)">
<path opacity="0.07" d="M37.6215 0.120117H4.02403C2.23917 0.120117 0.874268 1.48501 0.874268 3.26988V22.1685C0.874268 23.9533 2.34416 25.3182 4.02403 25.3182H37.6215C39.4064 25.3182 40.7713 23.9533 40.7713 22.1685V3.26988C40.7713 1.48501 39.3014 0.120117 37.6215 0.120117Z" fill="black"/>
<path d="M37.6211 1.16968C38.7761 1.16968 39.721 2.11461 39.721 3.26952V22.1681C39.721 23.323 38.7761 24.2679 37.6211 24.2679H4.02367C2.86876 24.2679 1.92383 23.323 1.92383 22.1681V3.26952C1.92383 2.11461 2.86876 1.16968 4.02367 1.16968H37.6211Z" fill="white"/>
<path d="M13.4731 12.7191V16.6038C13.4731 16.9188 13.2631 16.9188 12.9481 16.8138C10.9533 15.9738 9.79838 13.349 10.5333 11.1442C10.9533 9.98928 11.7932 9.04435 12.9481 8.62438C13.3681 8.4144 13.4731 8.51939 13.4731 8.83437V12.7191ZM15.5729 12.7191V8.83437C15.5729 8.51939 15.5729 8.51939 15.8879 8.62438C18.0928 9.46432 19.2477 12.0891 18.4077 14.294C17.9878 15.4489 17.1478 16.3938 15.9929 16.8138C15.5729 17.0238 15.5729 16.9188 15.5729 16.6038V12.7191ZM23.1324 5.36963H14.523C18.5127 5.36963 21.6625 8.62438 21.6625 12.7191C21.6625 16.8138 18.5127 20.0685 14.523 20.0685H23.1324C27.1221 20.0685 30.2718 16.8138 30.2718 12.7191C30.2718 8.62438 27.1221 5.36963 23.1324 5.36963Z" fill="#3086C8"/>
</g>
<defs>
<clipPath id="clip0_21_8178">
<rect width="39.897" height="25.1981" fill="white" transform="translate(0.874268 0.120117)"/>
</clipPath>
</defs>
</svg>
