<svg width="40" height="26" viewBox="0 0 40 26" fill="none" xmlns="http://www.w3.org/2000/svg">
<g clip-path="url(#clip0_21_8183)">
<path opacity="0.07" d="M36.7944 0.120117H3.19688C1.41202 0.120117 0.0471191 1.48501 0.0471191 3.26988V22.1685C0.0471191 23.9533 1.51701 25.3182 3.19688 25.3182H36.7944C38.5792 25.3182 39.9441 23.9533 39.9441 22.1685V3.26988C39.9441 1.48501 38.4742 0.120117 36.7944 0.120117Z" fill="black"/>
<path d="M36.7942 1.16968C37.9492 1.16968 38.8941 2.11461 38.8941 3.26952V22.1681C38.8941 23.323 37.9492 24.2679 36.7942 24.2679H3.19677C2.04185 24.2679 1.09692 23.323 1.09692 22.1681V3.26952C1.09692 2.11461 2.04185 1.16968 3.19677 1.16968H36.7942Z" fill="white"/>
<path d="M15.796 20.0685C19.855 20.0685 23.1454 16.7781 23.1454 12.7191C23.1454 8.66009 19.855 5.36963 15.796 5.36963C11.737 5.36963 8.44653 8.66009 8.44653 12.7191C8.44653 16.7781 11.737 20.0685 15.796 20.0685Z" fill="#EB001B"/>
<path d="M24.1954 20.0685C28.2544 20.0685 31.5448 16.7781 31.5448 12.7191C31.5448 8.66009 28.2544 5.36963 24.1954 5.36963C20.1364 5.36963 16.8459 8.66009 16.8459 12.7191C16.8459 16.7781 20.1364 20.0685 24.1954 20.0685Z" fill="#00A2E5"/>
<path d="M23.1455 12.7189C23.1455 10.1991 21.8856 7.99428 19.9957 6.73438C18.1059 8.09927 16.8459 10.3041 16.8459 12.7189C16.8459 15.1337 18.1059 17.4436 19.9957 18.7035C21.8856 17.4436 23.1455 15.2387 23.1455 12.7189Z" fill="#7375CF"/>
</g>
<defs>
<clipPath id="clip0_21_8183">
<rect width="39.897" height="25.1981" fill="white" transform="translate(0.0471191 0.120117)"/>
</clipPath>
</defs>
</svg>
