<svg width="41" height="26" viewBox="0 0 41 26" fill="none" xmlns="http://www.w3.org/2000/svg">
<g clip-path="url(#clip0_21_8189)">
<path opacity="0.07" d="M36.967 0.120117H3.36949C1.58462 0.120117 0.219727 1.48501 0.219727 3.26988V22.1685C0.219727 23.9533 1.68962 25.3182 3.36949 25.3182H36.967C38.7518 25.3182 40.1167 23.9533 40.1167 22.1685V3.26988C40.1167 1.48501 38.6468 0.120117 36.967 0.120117Z" fill="black"/>
<path d="M36.9671 1.16968C38.122 1.16968 39.0669 2.11461 39.0669 3.26952V22.1681C39.0669 23.323 38.122 24.2679 36.9671 24.2679H3.36962C2.2147 24.2679 1.26978 23.323 1.26978 22.1681V3.26952C1.26978 2.11461 2.2147 1.16968 3.36962 1.16968H36.9671Z" fill="white"/>
<path d="M15.9686 20.0685C20.0276 20.0685 23.318 16.7781 23.318 12.7191C23.318 8.66009 20.0276 5.36963 15.9686 5.36963C11.9096 5.36963 8.61914 8.66009 8.61914 12.7191C8.61914 16.7781 11.9096 20.0685 15.9686 20.0685Z" fill="#EB001B"/>
<path d="M24.3678 20.0685C28.4267 20.0685 31.7172 16.7781 31.7172 12.7191C31.7172 8.66009 28.4267 5.36963 24.3678 5.36963C20.3088 5.36963 17.0183 8.66009 17.0183 12.7191C17.0183 16.7781 20.3088 20.0685 24.3678 20.0685Z" fill="#F79E1B"/>
<path d="M23.3178 12.7189C23.3178 10.1991 22.0579 7.99428 20.1681 6.73438C18.2782 8.09927 17.0183 10.3041 17.0183 12.7189C17.0183 15.1337 18.2782 17.4436 20.1681 18.7035C22.0579 17.4436 23.3178 15.2387 23.3178 12.7189Z" fill="#FF5F00"/>
</g>
<defs>
<clipPath id="clip0_21_8189">
<rect width="39.897" height="25.1981" fill="white" transform="translate(0.219727 0.120117)"/>
</clipPath>
</defs>
</svg>
