<svg width="41" height="26" viewBox="0 0 41 26" fill="none" xmlns="http://www.w3.org/2000/svg">
<g clip-path="url(#clip0_21_8196)">
<path opacity="0.07" d="M37.1403 0.120117H3.54283C1.75796 0.120117 0.393066 1.48501 0.393066 3.26988V22.1685C0.393066 23.9533 1.86296 25.3182 3.54283 25.3182H37.1403C38.9252 25.3182 40.2901 23.9533 40.2901 22.1685V3.26988C40.2901 1.48501 38.8202 0.120117 37.1403 0.120117Z" fill="black"/>
<path d="M37.1402 1.16968C38.2951 1.16968 39.24 2.11461 39.24 3.26952V22.1681C39.24 23.323 38.2951 24.2679 37.1402 24.2679H3.54271C2.3878 24.2679 1.44287 23.323 1.44287 22.1681V3.26952C1.44287 2.11461 2.3878 1.16968 3.54271 1.16968H37.1402Z" fill="white"/>
<path d="M30.106 10.7241H29.791C29.371 11.774 29.0561 12.299 28.7411 13.8739H30.7359C30.421 12.299 30.421 11.5641 30.106 10.7241ZM33.1508 16.9187H31.3659C31.2609 16.9187 31.2609 16.9187 31.1559 16.8137L30.9459 15.8687L30.8409 15.6588H28.3211C28.2161 15.6588 28.1111 15.6588 28.1111 15.8687L27.7962 16.8137C27.7962 16.9187 27.6912 16.9187 27.6912 16.9187H25.4863L25.6963 16.3937L28.7411 9.25423C28.7411 8.72927 29.0561 8.51929 29.581 8.51929H31.1559C31.2609 8.51929 31.3659 8.51929 31.3659 8.72927L32.8358 15.5538C32.9408 15.9737 33.0458 16.2887 33.0458 16.7087C33.1508 16.8137 33.1508 16.8137 33.1508 16.9187ZM19.0818 16.6037L19.5018 14.7138C19.6068 14.7138 19.7118 14.8188 19.7118 14.8188C20.4467 15.1338 21.1817 15.3438 21.9166 15.2388C22.1266 15.2388 22.4416 15.1338 22.6515 15.0288C23.1765 14.8188 23.1765 14.2939 22.7565 13.8739C22.5466 13.6639 22.2316 13.5589 21.9166 13.3489C21.4966 13.1389 21.0767 12.929 20.7617 12.614C19.5018 11.5641 19.9217 10.0942 20.6567 9.35922C21.2866 8.93926 21.6016 8.51929 22.4416 8.51929C23.7015 8.51929 25.0664 8.51929 25.6963 8.72927H25.8013C25.6963 9.35922 25.5913 9.88418 25.3813 10.5141C24.8564 10.3042 24.3314 10.0942 23.8065 10.0942C23.4915 10.0942 23.1765 10.0942 22.8615 10.1992C22.6515 10.1992 22.5466 10.3042 22.4416 10.4091C22.2316 10.6191 22.2316 10.9341 22.4416 11.1441L22.9665 11.5641C23.3865 11.774 23.8065 11.984 24.1214 12.194C24.6464 12.509 25.1714 13.0339 25.2763 13.6639C25.4863 14.6088 25.1714 15.4488 24.3314 16.0787C23.8065 16.4987 23.5965 16.7087 22.8615 16.7087C21.3916 16.7087 20.2367 16.8137 19.2918 16.4987C19.1868 16.7087 19.1868 16.7087 19.0818 16.6037ZM15.4071 16.9187C15.5121 16.1837 15.5121 16.1837 15.6171 15.8687C16.142 13.5589 16.667 11.1441 17.087 8.83426C17.192 8.62428 17.192 8.51929 17.4019 8.51929H19.2918C19.0818 9.77919 18.8718 10.7241 18.5569 11.879C18.2419 13.4539 17.9269 15.0288 17.5069 16.6037C17.5069 16.8137 17.4019 16.8137 17.192 16.8137M5.64282 8.72927C5.64282 8.62428 5.85281 8.51929 5.9578 8.51929H9.52753C10.0525 8.51929 10.4725 8.83426 10.5775 9.35922L11.5224 13.9789C11.5224 14.0839 11.5224 14.0839 11.6274 14.1889C11.6274 14.0839 11.7324 14.0839 11.7324 14.0839L13.9372 8.72927C13.8322 8.62428 13.9372 8.51929 14.0422 8.51929H16.247C16.247 8.62428 16.247 8.62428 16.142 8.72927L12.8873 16.3937C12.7823 16.6037 12.7823 16.7087 12.6773 16.8137C12.5723 16.9187 12.3623 16.8137 12.1523 16.8137H10.5775C10.4725 16.8137 10.3675 16.8137 10.3675 16.6037L8.68759 10.0942C8.47761 9.88418 8.16263 9.56921 7.74266 9.46422C7.11271 9.14924 5.9578 8.93926 5.74781 8.93926L5.64282 8.72927Z" fill="#142688"/>
</g>
<defs>
<clipPath id="clip0_21_8196">
<rect width="39.897" height="25.1981" fill="white" transform="translate(0.393066 0.120117)"/>
</clipPath>
</defs>
</svg>
