<?xml version="1.0" standalone="no"?>
<!DOCTYPE svg PUBLIC "-//W3C//DTD SVG 20010904//EN"
 "http://www.w3.org/TR/2001/REC-SVG-20010904/DTD/svg10.dtd">
<svg version="1.0" xmlns="http://www.w3.org/2000/svg"
 width="1080.000000pt" height="1080.000000pt" viewBox="0 0 1080.000000 1080.000000"
 preserveAspectRatio="xMidYMid meet">
<metadata>
Created by potrace 1.14, written by Peter Selinger 2001-2017
</metadata>
<g transform="translate(0.000000,1080.000000) scale(0.100000,-0.100000)"
fill="#000000" stroke="none">
<path d="M541 8958 c2 -19 0 -39 -5 -46 -4 -6 -3 -12 2 -12 9 0 7 -64 -3 -80
-3 -6 -3 -10 2 -10 4 0 8 -31 8 -70 0 -38 -4 -70 -8 -70 -5 0 -5 -5 -1 -11 8
-14 8 -144 -1 -158 -3 -6 -3 -11 2 -11 4 0 8 -31 8 -70 0 -38 -4 -70 -8 -70
-5 0 -5 -5 -2 -11 9 -14 9 -134 1 -148 -4 -6 -3 -11 2 -11 9 0 7 -64 -3 -79
-3 -5 -1 -11 4 -13 5 -2 6 -24 1 -51 -4 -26 -4 -49 -1 -52 8 -4 5 -70 -4 -84
-3 -6 -1 -11 5 -11 7 0 9 -7 6 -15 -3 -8 -9 -22 -13 -32 -3 -9 -2 -14 3 -11
10 7 10 -104 0 -121 -4 -6 -3 -11 2 -11 9 0 7 -64 -3 -79 -3 -5 -1 -11 4 -13
5 -2 6 -24 1 -51 -4 -26 -4 -49 -1 -52 8 -4 5 -70 -4 -84 -3 -6 -1 -11 5 -11
7 0 9 -7 6 -15 -3 -8 -9 -22 -13 -32 -3 -9 -2 -14 3 -11 10 7 10 -104 0 -121
-4 -6 -3 -11 2 -11 9 0 7 -64 -3 -79 -3 -5 -1 -11 4 -13 5 -2 6 -24 2 -50 -5
-27 -5 -50 -3 -53 9 -8 8 -88 0 -112 -4 -13 -4 -23 0 -23 4 0 7 -31 7 -70 0
-38 -4 -70 -8 -70 -5 0 -5 -5 -1 -11 8 -14 8 -144 -1 -158 -3 -6 -3 -11 2 -11
4 0 8 -31 8 -70 0 -38 -3 -70 -7 -70 -4 0 -3 -11 2 -25 6 -17 6 -25 -1 -25 -6
0 -7 -5 -4 -11 5 -6 13 -2 23 13 9 13 21 28 27 35 29 34 35 43 35 48 0 7 78
114 97 133 7 7 13 19 13 27 0 7 4 15 8 17 4 2 30 35 57 73 27 39 53 72 57 73
5 2 8 10 8 18 0 8 3 14 8 14 4 0 23 25 42 55 19 30 38 55 43 55 4 0 7 6 7 13
0 6 14 28 30 47 16 19 30 41 30 48 0 7 5 10 10 7 6 -3 10 1 10 10 0 8 9 23 20
32 11 10 20 23 20 29 0 7 3 14 8 16 4 2 23 26 41 53 19 28 37 52 41 55 3 3 11
17 19 33 8 15 18 27 23 27 4 0 8 7 8 15 0 8 5 15 10 15 6 0 10 7 10 16 0 8 5
12 10 9 6 -3 10 -1 10 5 0 12 41 73 53 78 4 2 7 10 7 18 0 8 5 14 10 14 6 0
10 7 10 15 0 8 5 15 10 15 6 0 10 4 10 10 0 5 9 20 20 33 11 13 44 57 72 98
78 112 91 132 111 153 9 11 17 26 17 33 0 7 4 13 9 13 6 0 16 11 23 24 7 13
45 68 83 121 39 53 75 104 80 113 6 9 15 22 20 29 24 30 32 41 60 83 17 25 38
54 47 64 10 11 20 28 24 38 3 10 9 18 13 18 3 0 15 15 26 33 10 17 38 58 62
90 24 31 41 57 37 57 -4 0 3 8 14 19 12 10 22 23 22 30 0 6 5 11 10 11 6 0 10
6 10 14 0 8 3 16 8 18 4 2 25 29 46 61 40 58 49 67 41 45 -7 -23 -34 -142 -40
-177 -3 -19 -8 -38 -10 -41 -3 -4 -7 -25 -10 -46 -4 -22 -9 -48 -13 -59 -3
-11 -7 -23 -8 -27 -1 -5 -3 -10 -4 -13 -1 -3 -4 -9 -5 -15 -1 -5 -4 -13 -5
-17 -1 -5 -2 -16 -1 -25 1 -10 -3 -18 -9 -18 -6 0 -9 -4 -6 -8 3 -5 -2 -35
-10 -68 -8 -32 -17 -72 -20 -89 -3 -16 -8 -37 -11 -45 -3 -8 -8 -24 -10 -35
-2 -11 -6 -29 -8 -40 -2 -11 -5 -22 -6 -25 -1 -3 -3 -9 -4 -15 0 -5 -7 -33
-14 -61 -7 -29 -14 -60 -16 -70 -2 -11 -4 -21 -5 -24 -1 -3 -2 -7 -2 -10 0 -3
-8 -41 -19 -85 -11 -44 -21 -92 -24 -107 -2 -15 -9 -45 -15 -68 -6 -23 -13
-53 -15 -68 -3 -15 -14 -67 -25 -117 -12 -49 -23 -98 -25 -108 -2 -10 -6 -26
-9 -35 -3 -9 -8 -30 -11 -47 -9 -47 -10 -49 -19 -64 -7 -10 -5 -12 3 -6 10 6
11 3 2 -13 -6 -12 -11 -25 -10 -29 1 -4 0 -10 -1 -13 -2 -6 -4 -15 -20 -80
-13 -52 -20 -84 -25 -120 -2 -14 -4 -26 -6 -27 -2 -3 0 6 -27 -113 -12 -52
-23 -104 -25 -115 -2 -11 -7 -31 -10 -45 -32 -134 -40 -168 -42 -187 -2 -11
-6 -30 -9 -40 -7 -22 -4 -22 356 -26 101 -1 149 -6 152 -14 5 -11 -85 -147
-114 -171 -13 -11 -13 -12 0 -6 8 4 5 -3 -7 -14 -12 -12 -24 -30 -28 -42 -3
-11 -10 -20 -13 -20 -4 0 -16 -16 -26 -35 -11 -19 -23 -35 -28 -35 -4 0 -8 -7
-8 -15 0 -8 -4 -15 -8 -15 -5 0 -18 -17 -30 -37 -11 -21 -28 -47 -36 -58 -46
-59 -84 -114 -101 -142 -11 -18 -23 -33 -28 -33 -4 0 -6 -4 -3 -9 3 -5 -1 -11
-9 -15 -8 -3 -15 -10 -15 -17 0 -6 -8 -21 -17 -34 -10 -12 -25 -33 -33 -45 -8
-13 -23 -32 -32 -42 -10 -10 -18 -22 -18 -26 0 -5 -9 -18 -20 -30 -11 -12 -19
-24 -18 -26 2 -2 -7 -16 -19 -30 -13 -15 -23 -29 -23 -31 0 -3 -5 -11 -11 -18
-24 -28 -119 -168 -119 -176 0 -5 -3 -11 -7 -13 -5 -1 -26 -30 -48 -63 -22
-33 -48 -67 -58 -76 -9 -9 -17 -20 -17 -24 0 -4 -21 -37 -48 -74 -26 -36 -69
-97 -95 -136 -26 -38 -76 -110 -112 -160 -36 -49 -69 -100 -75 -112 -5 -13
-14 -23 -19 -23 -5 0 -11 -8 -15 -17 -6 -19 -27 -55 -37 -63 -3 -3 -30 -40
-60 -84 -78 -114 -83 -121 -91 -124 -5 -2 -8 -9 -8 -15 0 -7 -10 -24 -23 -38
-24 -27 -43 -56 -54 -79 -4 -8 -9 -17 -13 -20 -3 -3 -25 -32 -48 -65 -37 -53
-42 -66 -39 -108 1 -26 -1 -47 -6 -47 -4 0 -4 -7 1 -16 5 -8 6 -36 2 -60 -4
-25 -4 -46 -1 -49 8 -4 5 -70 -4 -84 -3 -6 -1 -11 5 -11 7 0 9 -7 6 -15 -3 -8
-9 -22 -13 -32 -3 -9 -2 -14 3 -11 5 4 8 -20 7 -56 l-1 -62 226 2 c125 1 459
5 742 8 283 3 837 8 1230 11 664 5 1013 11 1057 19 10 2 43 7 74 10 31 4 65 8
75 10 11 2 44 7 74 11 30 4 62 9 70 11 8 2 51 12 95 22 115 28 226 62 253 79
13 8 26 12 28 10 3 -3 32 8 65 24 32 16 62 29 65 29 3 0 19 9 35 21 16 11 29
18 29 15 0 -7 83 49 138 92 33 26 195 185 217 214 6 7 26 36 44 63 19 28 40
55 48 61 7 7 16 22 18 34 2 13 12 31 20 40 9 10 18 24 19 32 1 7 11 31 22 53
12 22 31 69 43 105 13 36 26 72 29 80 3 8 7 24 9 35 8 38 11 50 13 50 1 0 3 9
5 20 6 33 18 89 22 105 2 8 5 22 5 30 0 8 5 21 11 28 6 8 6 12 -2 12 -7 0 -10
4 -6 10 16 26 28 373 14 401 -5 9 -3 21 3 27 7 7 8 12 2 12 -5 0 -9 17 -9 38
1 20 -1 42 -4 47 -3 6 -6 21 -6 35 0 14 -3 30 -6 35 -4 6 -5 20 -4 33 1 12 -1
22 -5 22 -4 0 -6 10 -6 23 1 12 0 27 -3 32 -3 6 -6 15 -6 20 -1 6 -7 30 -14
55 l-12 45 -737 0 c-419 0 -748 3 -762 8 -14 5 -34 21 -45 36 -19 25 -20 43
-22 626 -1 489 1 604 12 626 23 44 87 75 119 57 10 -6 16 -5 16 1 0 6 11 7 28
2 15 -5 35 -5 45 -2 9 3 38 5 65 3 26 -1 56 -2 67 -1 21 1 32 1 80 0 38 -1
117 -2 130 -2 6 1 64 1 130 1 66 0 129 0 140 1 22 1 34 1 80 0 115 -2 126 -2
244 1 l94 3 38 73 c22 39 36 72 33 72 -4 0 -2 6 3 13 11 13 27 67 25 80 -1 4
2 7 6 7 5 0 9 6 10 13 1 15 10 52 12 52 1 0 3 9 5 20 2 11 6 31 9 45 3 14 7
51 8 82 2 32 5 58 9 58 3 0 4 60 2 133 -4 171 -7 217 -14 217 -3 0 -5 15 -4
33 1 17 0 37 -4 42 -7 12 -10 29 -13 72 -2 18 -6 33 -10 33 -5 0 -8 8 -8 18 0
9 -7 36 -15 60 -9 24 -17 51 -19 60 -5 27 -37 101 -75 172 -19 36 -39 75 -45
87 -6 13 -14 23 -18 23 -5 0 -8 4 -8 10 0 9 -19 35 -47 65 -7 8 -13 17 -13 21
0 4 -12 19 -27 33 -16 15 -45 46 -65 69 -21 23 -38 39 -38 36 0 -4 -10 4 -22
17 -31 33 -132 109 -146 109 -5 0 -12 4 -14 9 -3 9 -203 117 -223 121 -5 1
-21 7 -35 12 -73 28 -130 46 -130 41 0 -3 -6 -1 -12 5 -7 5 -32 12 -56 16 -24
3 -47 8 -51 10 -28 18 -244 21 -1759 23 l-1694 3 3 -32z m2119 -1113 c5 -3 10
-1 10 5 0 6 5 8 11 5 6 -4 97 -8 202 -10 236 -4 287 -8 328 -29 17 -9 35 -13
40 -10 5 3 9 0 9 -7 0 -7 3 -10 6 -6 9 9 111 -58 157 -102 49 -46 72 -83 100
-162 20 -55 23 -81 21 -184 -4 -236 -64 -353 -244 -470 -92 -60 -114 -68 -235
-81 -60 -7 -316 -10 -320 -4 -2 3 -128 5 -280 5 l-276 -1 5 156 c7 169 12 286
21 455 7 126 13 257 16 365 1 41 3 78 5 81 5 8 410 2 424 -6z m-400 -2108 c36
2 74 3 85 2 17 -1 117 0 150 1 6 0 111 0 235 0 124 0 232 0 240 0 41 1 248
-10 265 -14 218 -52 313 -93 387 -168 43 -44 93 -124 104 -167 36 -148 36
-254 -1 -374 -20 -67 -66 -167 -76 -167 -5 0 -9 -6 -9 -14 0 -8 -10 -22 -22
-30 -12 -9 -18 -16 -13 -16 6 0 -12 -21 -40 -45 -83 -75 -183 -120 -310 -142
-23 -4 -1008 -7 -1087 -4 -17 1 -18 35 -18 562 0 523 1 563 17 575 10 7 20 9
23 5 3 -4 34 -6 70 -4z"/>
<path d="M9105 8712 c-123 -4 -110 30 -111 -294 -1 -310 -11 -936 -20 -1259
-4 -156 -3 -209 6 -214 9 -6 1354 -10 1492 -6 16 1 17 21 13 289 -5 283 -6
300 -4 325 2 57 -12 1142 -16 1145 -8 8 -1193 21 -1360 14z"/>
<path d="M5643 8693 c-3 -7 -3 -18 0 -25 2 -7 0 -25 -4 -40 -5 -19 -4 -28 4
-28 8 0 7 -3 -2 -9 -9 -6 -10 -11 -2 -15 8 -5 8 -13 1 -27 -7 -12 -7 -19 -1
-19 5 0 7 -12 5 -27 -5 -28 -8 -149 -4 -168 1 -5 1 -14 0 -20 -1 -5 -4 -192
-6 -415 -2 -223 -6 -528 -8 -678 -2 -169 1 -275 7 -279 10 -6 2586 -8 2591 -1
2 1 -82 137 -185 300 -103 163 -184 299 -181 302 3 3 0 6 -6 6 -6 0 -17 12
-25 28 -19 36 -142 232 -162 257 -8 10 -15 25 -15 32 0 7 -4 13 -10 13 -5 0
-10 7 -10 15 0 8 -4 15 -10 15 -5 0 -10 7 -10 15 0 8 -4 15 -9 15 -5 0 -13 10
-17 23 -4 12 -10 24 -13 27 -4 3 -22 30 -41 60 -41 68 -103 165 -191 304 -24
39 -48 78 -54 87 -16 29 -157 254 -161 258 -3 3 -336 5 -740 5 -570 1 -738 -2
-741 -11z"/>
<path d="M2107 8506 c-9 -13 -22 -29 -29 -37 -8 -8 -24 -31 -37 -51 -12 -21
-28 -38 -33 -38 -6 0 -9 -3 -5 -6 3 -4 -5 -21 -18 -39 -14 -17 -25 -37 -25
-43 0 -7 -4 -12 -9 -12 -5 0 -24 -23 -43 -52 -50 -77 -66 -101 -84 -126 -15
-20 -120 -170 -206 -294 -18 -27 -41 -58 -50 -69 -10 -12 -18 -25 -18 -28 0
-3 -14 -22 -30 -41 -16 -19 -30 -40 -30 -47 0 -6 -4 -13 -8 -15 -5 -1 -29 -32
-53 -68 -24 -36 -49 -71 -56 -78 -7 -7 -13 -20 -13 -28 0 -8 -5 -14 -10 -14
-6 0 -15 -11 -20 -25 -5 -14 -14 -25 -20 -25 -5 0 -10 -4 -10 -10 0 -5 -33
-56 -74 -113 -40 -57 -78 -113 -85 -124 -6 -12 -17 -27 -24 -35 -7 -7 -26 -34
-42 -60 -17 -27 -33 -48 -36 -48 -4 0 -12 -13 -19 -30 -7 -16 -16 -30 -20 -30
-4 0 -15 -16 -26 -35 -10 -19 -21 -35 -25 -35 -3 0 -14 -16 -25 -35 -10 -19
-22 -35 -26 -35 -5 0 -8 -6 -8 -13 0 -8 -9 -22 -20 -32 -11 -10 -20 -24 -20
-31 0 -7 -4 -14 -8 -16 -4 -1 -28 -32 -52 -68 -25 -36 -51 -71 -58 -78 -6 -7
-12 -17 -12 -22 0 -5 -6 -15 -13 -22 -7 -7 -37 -49 -67 -93 -30 -44 -58 -82
-63 -83 -4 -2 -5 -8 -1 -13 3 -5 1 -9 -5 -9 -9 0 -41 -50 -41 -63 0 -3 102 -5
228 -5 125 -1 243 -1 262 -1 28 -1 36 -5 37 -21 1 -11 -1 -20 -5 -20 -4 0 -9
-10 -10 -22 -3 -26 -10 -63 -12 -63 -1 0 -3 -9 -5 -20 -2 -11 -6 -31 -9 -45
-4 -14 -9 -41 -12 -60 -3 -19 -9 -39 -12 -45 -4 -5 -7 -15 -8 -22 -9 -57 -99
-429 -105 -431 -4 -2 -6 -9 -3 -17 3 -7 0 -33 -7 -56 -7 -24 -13 -48 -15 -54
-6 -25 -16 -73 -21 -100 -3 -16 -9 -37 -14 -46 -4 -9 -6 -19 -3 -22 3 -3 2
-12 -2 -19 -5 -7 -9 -17 -10 -23 -1 -5 -7 -37 -15 -70 -7 -33 -13 -64 -15 -70
-1 -5 -12 -50 -24 -100 -12 -49 -23 -97 -25 -105 -1 -8 -5 -26 -8 -40 -18 -69
-59 -245 -63 -264 -2 -11 -7 -34 -11 -51 -4 -16 -7 -32 -8 -35 -6 -30 -28
-118 -32 -130 -3 -8 -7 -25 -9 -37 -2 -13 -6 -33 -8 -45 -6 -42 -17 -83 -28
-105 -6 -11 -7 -26 -4 -32 4 -6 3 -11 -1 -11 -5 0 -9 -10 -10 -22 0 -13 -5
-37 -11 -55 -8 -26 -8 -31 4 -26 8 3 14 12 14 19 0 8 7 17 15 20 8 4 15 10 15
15 0 6 14 29 31 52 17 23 64 89 105 147 40 58 78 110 84 117 5 7 10 17 10 22
0 6 6 14 14 18 8 4 16 14 18 22 2 7 15 27 31 45 15 17 27 34 27 38 0 4 15 27
33 51 75 100 147 206 147 217 0 6 7 10 16 10 8 0 13 4 10 8 -3 5 6 21 20 37
13 15 24 32 24 36 0 4 6 14 14 21 7 8 47 64 89 125 42 61 78 109 81 105 3 -3
6 2 6 12 0 9 7 19 15 22 8 4 15 11 15 18 0 11 104 164 134 199 9 9 16 20 16
23 0 6 48 71 68 92 6 7 12 18 12 23 0 8 20 35 48 64 6 8 12 16 12 19 0 5 67
102 163 236 25 36 55 79 67 95 44 63 100 140 110 152 5 7 10 16 10 20 0 5 11
21 25 36 14 15 23 27 20 27 -3 0 6 12 20 27 14 15 25 32 25 36 0 5 7 15 15 24
9 8 14 17 12 19 -2 2 -116 7 -253 10 -254 6 -273 9 -254 45 5 9 7 19 4 21 -2
3 0 17 6 32 5 15 12 39 15 54 8 47 40 186 106 472 12 52 23 107 24 122 2 14 6
31 9 36 6 10 18 75 19 100 0 6 4 12 8 12 4 0 6 8 4 18 -1 9 2 25 6 34 5 10 11
30 14 45 7 47 33 168 45 214 7 24 14 55 17 69 2 14 13 66 24 115 43 189 50
221 55 254 3 19 10 45 15 58 5 13 6 23 4 23 -2 0 0 12 6 28 6 15 13 38 15 52
5 32 12 64 14 68 2 1 4 11 5 22 1 11 3 21 5 23 2 3 6 22 14 67 3 19 10 50 15
68 5 18 10 35 10 37 1 3 1 6 2 8 4 13 10 46 12 64 1 13 5 23 9 23 3 0 5 8 3
18 -1 9 0 22 4 27 3 6 6 15 7 21 1 6 5 21 9 33 8 28 1 27 -18 -3z"/>
<path d="M7003 6758 c-4 -7 -12 -20 -18 -30 -33 -54 -80 -118 -87 -118 -4 0
-8 -6 -8 -13 0 -7 -9 -23 -20 -35 -12 -12 -18 -22 -15 -22 7 0 -12 -24 -37
-48 -10 -9 -18 -22 -18 -28 0 -6 -9 -22 -20 -35 -59 -72 -141 -199 -135 -209
3 -6 1 -10 -6 -10 -10 0 -10 -3 -2 -11 8 -8 8 -20 3 -34 -12 -31 5 -44 55 -42
22 1 46 -2 53 -7 6 -4 12 -3 12 2 0 7 33 8 50 2 3 -1 9 -2 13 -1 41 7 67 7 67
-2 0 -6 5 -6 13 0 6 5 23 8 37 6 31 -4 52 -5 65 -3 6 1 19 2 30 1 19 -1 21 -7
20 -86 -1 -47 1 -89 4 -93 9 -13 131 -11 132 2 1 6 1 48 1 94 1 45 5 82 9 83
48 5 115 2 121 -6 4 -5 8 23 8 63 0 50 -4 72 -12 73 -7 1 -33 3 -58 4 -25 1
-50 3 -56 4 -7 1 -11 26 -10 70 1 39 -1 76 -4 83 -3 9 -26 13 -67 13 -34 0
-59 -3 -57 -7 2 -3 0 -9 -6 -13 -7 -4 -7 -12 0 -26 6 -10 7 -19 3 -19 -4 0 -7
-24 -6 -53 l1 -54 -119 1 c-65 1 -119 2 -119 4 0 8 27 48 38 55 7 5 10 12 7
18 -4 5 -2 9 3 9 5 0 25 25 43 55 18 30 37 55 41 55 4 0 8 6 8 13 0 7 8 22 18
33 24 27 62 82 62 89 0 6 13 23 43 56 9 10 14 19 11 19 -3 0 10 22 30 49 20
27 36 51 36 55 0 12 -149 6 -157 -6z"/>
<path d="M4274 6645 c-3 -7 -4 -26 -2 -42 l3 -28 195 0 195 0 0 -68 0 -67
-132 -1 c-73 -1 -136 -2 -140 -3 -34 -8 -53 -20 -54 -34 -1 -9 -3 -27 -4 -40
-3 -25 32 -102 46 -102 5 0 9 -5 9 -12 0 -6 9 -22 21 -34 l21 -22 -31 -42
c-17 -24 -31 -51 -31 -62 0 -10 -5 -18 -11 -18 -6 0 -7 -5 -2 -12 4 -7 8 -29
10 -48 1 -19 6 -36 12 -38 6 -2 11 -10 11 -17 0 -12 83 -100 138 -146 63 -53
301 -162 323 -148 17 10 14 12 -41 31 -82 29 -160 65 -153 71 3 4 -3 7 -15 7
-12 0 -22 5 -22 10 0 6 -7 10 -15 10 -8 0 -15 5 -15 10 0 6 -6 10 -12 10 -21
1 -107 95 -124 135 -22 54 -12 116 28 155 43 44 105 71 162 71 42 1 52 -3 77
-30 25 -28 27 -34 17 -61 -11 -32 -90 -120 -108 -120 -16 0 -12 -13 14 -42 30
-35 41 -35 76 2 15 17 26 30 22 30 -3 0 2 8 11 18 9 9 19 40 22 67 22 161
-144 261 -302 183 -13 -6 -24 -9 -26 -7 -1 2 -15 21 -30 41 -29 39 -35 82 -14
95 6 4 86 8 176 9 l165 0 -3 60 c-2 32 -4 81 -5 109 l-1 49 148 1 c139 1 149
-1 159 -19 17 -32 21 -89 9 -134 -11 -38 -12 -40 -44 -33 -17 4 -38 6 -44 5
-7 -1 -17 -2 -22 -3 -13 -1 -25 -41 -22 -71 4 -36 47 -119 81 -159 17 -18 30
-38 30 -43 0 -5 14 -22 30 -38 17 -16 30 -32 30 -35 0 -3 9 -16 20 -28 11 -12
32 -37 46 -55 14 -17 30 -30 35 -26 11 7 -1 30 -34 65 -13 15 -27 34 -30 43
-4 9 -11 16 -17 16 -5 0 -10 6 -10 14 0 8 -7 16 -15 20 -8 3 -15 10 -15 16 0
6 -11 23 -25 38 -13 14 -21 29 -16 32 15 9 60 88 54 93 -7 8 40 -1 70 -12 35
-13 108 -7 146 12 43 21 44 21 38 -3 -3 -11 -2 -20 2 -20 4 0 5 -21 1 -48 -3
-26 -3 -62 1 -80 4 -18 3 -35 -2 -38 -5 -3 -7 -10 -4 -15 4 -5 7 -27 7 -49 0
-27 8 -49 24 -67 13 -16 24 -31 24 -35 0 -12 24 -4 30 9 3 7 5 154 4 328 0
173 2 315 5 316 16 3 618 4 631 1 12 -2 15 -17 14 -65 -2 -79 -2 -79 -14 -72
-13 8 -88 -27 -124 -58 -26 -23 -30 -23 -45 -8 -92 87 -182 105 -236 46 -29
-30 -49 -94 -35 -110 6 -7 7 -15 4 -18 -10 -10 41 -88 98 -149 29 -31 68 -75
87 -97 26 -30 38 -37 47 -30 10 8 4 19 -24 45 -20 19 -33 34 -30 34 4 0 -8 15
-26 33 -99 96 -105 222 -11 256 33 11 39 10 80 -14 25 -14 45 -28 45 -31 0 -3
-9 -17 -20 -31 -26 -33 -25 -46 5 -79 28 -30 26 -31 85 47 34 46 102 111 108
104 3 -3 6 -92 6 -199 l1 -193 30 -34 c17 -19 35 -35 41 -36 8 -1 11 88 10
313 -1 173 2 323 6 333 5 14 17 17 70 16 82 -2 87 0 84 43 l-2 37 -1018 1
c-831 2 -1018 -1 -1022 -11z m1064 -78 c9 -6 9 -13 2 -28 -8 -13 -7 -19 0 -19
6 0 8 -5 4 -12 -4 -6 -6 -37 -5 -68 1 -44 -3 -62 -19 -83 -12 -15 -28 -27 -36
-27 -8 0 -14 -3 -14 -8 0 -4 -18 -8 -40 -8 -22 -1 -40 2 -40 6 0 4 -6 7 -12 7
-39 1 -67 20 -63 43 2 8 4 15 5 15 8 0 3 102 -5 107 -6 5 -6 8 2 8 9 0 10 7 2
27 -5 14 -8 31 -6 37 5 13 205 15 225 3z"/>
<path d="M7639 6641 c0 -9 -2 -26 -3 -38 -3 -26 -5 -25 89 -27 l70 -1 0 -62
c-1 -35 3 -63 8 -63 6 0 6 -5 0 -12 -5 -7 -8 -33 -7 -58 4 -68 -1 -75 -43 -74
-57 2 -64 -3 -50 -34 27 -63 134 -182 163 -182 10 0 14 6 11 15 -4 8 -2 17 4
21 7 4 6 10 -1 19 -8 9 -8 15 0 20 6 4 7 12 1 24 -16 30 1 36 99 36 91 -1 148
-15 125 -32 -12 -10 -15 -103 -2 -103 4 0 5 -5 1 -12 -4 -6 -8 -30 -9 -52 -1
-35 5 -47 39 -81 l40 -40 6 25 c4 14 5 36 3 50 -3 14 -4 32 -4 40 2 30 3 126
2 150 0 14 -1 70 0 125 0 55 0 109 0 120 -2 72 2 155 8 156 18 4 288 5 298 1
27 -9 35 -84 19 -160 -7 -28 -11 -32 -29 -26 -47 15 -105 5 -92 -16 3 -5 1
-11 -4 -14 -5 -4 -8 -17 -7 -30 3 -25 50 -122 72 -147 8 -8 14 -20 14 -26 0
-6 4 -13 9 -15 5 -1 31 -32 58 -68 64 -83 114 -140 125 -140 19 0 5 28 -37 75
-61 68 -65 73 -65 80 0 3 -8 15 -18 26 -45 47 -47 63 -14 112 17 24 28 48 24
52 -4 3 5 4 19 0 14 -3 34 -8 45 -10 10 -2 19 -4 19 -5 0 -1 14 -4 31 -6 18
-3 57 4 87 15 51 17 56 18 60 3 2 -10 0 -29 -4 -44 -4 -16 -3 -30 2 -34 6 -3
5 -12 -3 -21 -7 -9 -12 -18 -10 -19 8 -9 20 -64 14 -64 -4 0 -7 -13 -7 -30 0
-16 3 -30 6 -30 3 0 4 -11 2 -25 -4 -18 3 -32 25 -54 16 -17 27 -32 25 -35 -3
-2 3 -3 13 -2 13 2 18 12 19 39 0 21 -3 37 -8 37 -4 0 -3 8 2 18 7 13 6 23 -1
30 -7 7 -8 12 -2 12 12 0 12 63 -1 72 -7 5 -7 8 0 8 12 0 13 70 1 88 -4 7 -3
12 1 12 5 0 8 18 8 40 0 22 -3 40 -8 40 -4 0 -5 6 -1 12 12 19 12 48 1 48 -5
0 -4 6 2 14 9 11 9 20 2 34 -6 11 -8 22 -4 25 10 10 10 51 0 65 -6 7 -6 12 1
12 5 0 8 9 5 21 -3 12 -1 24 5 28 8 5 620 7 642 2 7 -1 8 -131 1 -132 -37 -4
-62 -13 -91 -33 -19 -13 -39 -23 -45 -24 -5 0 -12 -8 -15 -16 -4 -12 -14 -8
-50 23 -99 83 -195 80 -235 -10 -19 -41 -14 -117 7 -131 7 -4 9 -8 3 -8 -5 0
-1 -7 9 -15 11 -8 16 -15 12 -15 -4 0 -1 -6 6 -14 7 -7 40 -44 73 -81 98 -111
100 -114 113 -106 8 5 2 18 -21 43 -67 75 -89 103 -112 142 -27 47 -37 95 -22
114 5 6 6 12 1 12 -4 0 9 15 29 34 32 29 43 34 75 30 20 -3 40 -11 45 -19 4
-8 14 -15 22 -15 18 0 12 -35 -9 -56 -18 -17 -21 -44 -6 -44 6 0 10 -7 10 -17
0 -9 3 -13 7 -10 3 4 12 -1 19 -11 12 -15 15 -15 23 -2 21 31 37 52 55 73 10
12 28 34 40 48 13 15 31 29 42 33 19 6 20 0 19 -187 -1 -164 2 -194 15 -207 9
-8 19 -22 22 -31 8 -22 45 -31 52 -13 3 8 1 14 -4 14 -5 0 -5 13 0 30 5 19 5
30 -1 30 -6 0 -7 6 -3 12 11 17 12 48 3 48 -4 0 -4 14 1 30 5 19 5 30 -1 30
-6 0 -7 6 -3 12 11 17 12 48 3 48 -4 0 -4 12 0 28 5 15 4 37 0 50 -5 12 -5 22
-1 22 4 0 7 14 7 30 0 17 -3 30 -7 30 -4 0 -3 13 2 29 5 19 4 33 -3 40 -6 6
-7 11 -1 11 5 0 9 11 9 25 0 14 -4 25 -8 25 -5 0 -5 6 0 13 9 15 10 40 2 47
-4 3 -3 14 1 26 7 18 16 20 84 19 l76 -1 0 42 0 42 -1070 0 c-979 -1 -1070 -2
-1071 -17z m454 -70 c4 0 6 -19 3 -41 -3 -26 0 -40 7 -40 8 0 7 -3 -1 -9 -8
-4 -14 -12 -14 -16 0 -4 6 -12 14 -16 10 -7 11 -11 0 -17 -9 -7 -10 -15 -3
-35 7 -17 7 -28 0 -32 -5 -4 -7 -11 -4 -16 4 -5 4 -17 1 -27 -5 -15 -18 -17
-98 -15 -51 1 -99 2 -107 2 -8 1 -11 8 -8 21 3 11 1 20 -5 20 -5 0 -6 6 -2 12
10 16 13 48 5 48 -8 0 -4 77 4 90 3 6 1 10 -6 10 -8 0 -9 3 0 13 6 8 8 17 5
20 -4 3 -4 12 -1 19 3 10 29 13 103 12 55 -1 103 -2 107 -3z m702 -16 c1 -11
4 -25 7 -30 4 -6 3 -17 -2 -25 -4 -7 -4 -24 1 -37 5 -14 5 -23 -1 -23 -5 0 -7
-7 -4 -15 12 -29 -16 -82 -49 -96 -40 -17 -47 -18 -71 -6 -13 7 -16 6 -11 -3
6 -9 2 -9 -14 -1 -12 7 -26 9 -31 6 -6 -3 -10 -2 -10 3 0 5 -9 12 -20 15 -16
4 -18 11 -14 43 7 65 9 124 4 124 -3 0 -7 15 -8 33 l-2 33 112 -1 c105 -1 113
-2 113 -20z"/>
<path d="M7470 5621 c0 -12 31 -69 52 -96 5 -5 34 -50 65 -100 32 -49 63 -96
70 -103 7 -7 13 -20 13 -28 0 -8 3 -14 8 -14 4 0 21 -23 37 -51 17 -28 35 -56
41 -63 6 -7 19 -26 27 -43 9 -17 22 -37 29 -45 17 -19 36 -48 48 -75 5 -13 14
-23 20 -23 5 0 9 -3 8 -7 -2 -7 147 -242 172 -270 5 -7 10 -15 10 -18 0 -8 44
-69 53 -73 4 -2 7 -10 7 -18 0 -8 7 -17 15 -20 8 -4 12 -10 9 -15 -3 -5 0 -9
5 -9 6 0 11 -5 11 -10 0 -6 27 -51 60 -100 33 -49 60 -92 60 -95 0 -3 5 -11
11 -18 10 -11 55 -80 258 -392 50 -77 97 -149 105 -160 8 -11 15 -24 15 -29
-1 -5 3 -12 8 -15 13 -9 183 -269 183 -280 0 -6 6 -14 13 -18 7 -4 18 -20 24
-35 7 -16 17 -28 23 -28 5 0 10 -7 10 -15 0 -9 11 -27 24 -42 l24 -25 451 -2
c292 -1 452 3 455 9 3 7 5 7 5 0 1 -8 407 -12 552 -6 14 1 16 105 14 1154 -1
633 -2 1154 -3 1157 -3 8 -87 4 -100 -4 -7 -4 -12 -3 -12 2 0 6 -14 7 -34 2
-19 -4 -39 -4 -46 0 -6 4 -24 5 -38 3 -31 -5 -38 -5 -72 0 -14 2 -31 -1 -37
-6 -9 -6 -13 -5 -13 2 0 9 -5 9 -20 1 -11 -6 -20 -7 -20 -2 0 10 -42 8 -59 -2
-5 -4 -12 -2 -16 4 -4 7 -12 7 -24 0 -10 -5 -21 -7 -24 -3 -10 10 -51 10 -64
0 -8 -6 -13 -6 -13 1 0 6 -13 7 -34 2 -19 -4 -39 -4 -46 0 -6 4 -24 5 -38 3
-31 -5 -38 -5 -72 0 -14 2 -31 -1 -37 -6 -9 -6 -13 -5 -13 2 0 9 -5 9 -20 1
-11 -6 -20 -7 -20 -2 0 10 -42 8 -59 -2 -5 -4 -12 -2 -16 4 -4 7 -12 7 -24 0
-10 -5 -21 -7 -24 -3 -10 10 -51 10 -64 0 -8 -6 -13 -6 -13 1 0 6 -13 7 -34 2
-19 -4 -39 -4 -46 0 -6 4 -24 5 -38 3 -31 -5 -38 -5 -72 0 -14 2 -31 -1 -37
-6 -9 -6 -13 -5 -13 2 0 9 -5 9 -20 1 -11 -6 -20 -7 -20 -2 0 10 -42 8 -59 -2
-5 -4 -12 -2 -16 4 -4 7 -12 7 -24 0 -10 -5 -21 -7 -24 -3 -10 10 -51 10 -64
0 -8 -6 -13 -6 -13 1 0 6 -13 7 -34 2 -19 -4 -39 -4 -46 0 -6 4 -24 5 -38 3
-31 -5 -38 -5 -72 0 -14 2 -31 -1 -37 -6 -9 -6 -13 -5 -13 2 0 9 -5 9 -20 1
-11 -6 -20 -7 -20 -2 0 10 -42 8 -59 -2 -5 -4 -12 -2 -16 4 -4 7 -12 7 -24 0
-10 -5 -21 -7 -24 -3 -10 10 -51 10 -64 0 -8 -6 -13 -6 -13 1 0 6 -13 7 -34 2
-19 -4 -39 -4 -46 0 -6 4 -24 5 -38 3 -31 -5 -38 -5 -72 0 -14 2 -31 -1 -37
-6 -9 -6 -13 -5 -13 2 0 9 -5 9 -20 1 -11 -6 -20 -7 -20 -2 0 10 -42 8 -59 -2
-5 -4 -12 -2 -16 4 -4 7 -12 7 -24 0 -10 -5 -21 -7 -24 -3 -10 10 -51 10 -64
0 -8 -6 -13 -6 -13 1 0 6 -13 7 -34 2 -19 -4 -39 -4 -46 0 -6 4 -24 5 -38 3
-31 -5 -38 -5 -72 0 -14 2 -31 -1 -37 -6 -9 -6 -13 -5 -13 2 0 9 -5 9 -20 1
-11 -6 -20 -7 -20 -2 0 5 -12 7 -27 5 -32 -5 -33 -5 -90 0 -26 2 -43 -1 -43
-7 0 -6 -9 0 -20 14 -11 15 -20 19 -20 11z"/>
<path d="M5650 5600 c0 -5 1 -11 2 -12 1 -2 -4 -13 -11 -25 -9 -17 -9 -23 0
-23 8 0 9 -4 0 -13 -6 -8 -8 -17 -5 -20 10 -10 11 -49 2 -74 -4 -13 -4 -23 1
-23 4 0 6 -12 4 -27 -2 -16 -4 -34 -4 -40 1 -16 1 -59 0 -75 0 -7 1 -43 3 -81
2 -38 -1 -67 -6 -67 -6 0 -5 -5 2 -12 7 -7 8 -17 1 -30 -7 -13 -6 -18 2 -18 8
0 9 -4 0 -13 -6 -8 -8 -17 -5 -20 10 -10 11 -49 2 -74 -4 -13 -4 -23 1 -23 4
0 6 -12 4 -27 -2 -16 -4 -34 -4 -40 1 -16 1 -59 0 -75 0 -7 1 -43 3 -81 2 -38
-1 -67 -6 -67 -6 0 -5 -5 2 -12 7 -7 8 -17 1 -30 -7 -13 -6 -18 2 -18 8 0 9
-4 0 -13 -6 -8 -8 -17 -5 -20 10 -10 11 -49 2 -74 -4 -13 -4 -23 0 -23 4 0 6
-24 4 -52 -4 -62 -4 -84 1 -118 2 -14 -1 -30 -5 -37 -5 -6 -4 -14 2 -18 8 -5
8 -11 -1 -21 -9 -11 -9 -14 0 -14 8 0 9 -5 2 -18 -5 -10 -6 -23 -2 -30 4 -6 5
-35 3 -64 -4 -62 -4 -84 1 -118 2 -14 -1 -30 -5 -37 -5 -6 -4 -14 2 -18 8 -5
8 -11 -1 -21 -9 -11 -9 -14 0 -14 8 0 9 -5 2 -19 -6 -10 -8 -21 -4 -25 10 -10
9 -146 -2 -146 -5 0 -4 -5 3 -12 7 -7 8 -17 1 -30 -7 -13 -6 -18 2 -18 8 0 9
-4 0 -13 -6 -8 -8 -17 -5 -20 10 -10 11 -49 2 -74 -4 -13 -4 -23 0 -23 4 0 7
-23 7 -50 0 -28 -4 -50 -9 -50 -4 0 -3 -6 3 -14 9 -11 9 -15 -1 -19 -8 -4 -9
-6 -1 -6 6 -1 9 -10 6 -21 -4 -15 0 -20 13 -21 115 -6 1485 -2 1500 4 21 9 21
14 17 131 -3 66 -5 157 -6 201 0 45 -5 83 -11 87 -7 5 -6 8 3 8 11 0 11 3 1
15 -7 8 -8 15 -3 15 11 0 10 81 -1 98 -4 6 -3 20 2 29 5 10 6 27 2 38 -4 11
-4 29 0 40 4 11 4 29 -1 40 -10 27 -11 37 0 31 4 -3 5 12 1 34 -4 21 -4 44 0
51 4 6 4 26 -1 43 -11 37 -11 38 -1 33 4 -3 7 10 7 29 0 19 -2 34 -5 34 -3 0
-5 22 -5 49 0 27 2 48 6 46 3 -2 3 18 -1 44 -3 26 -3 60 1 74 4 15 4 27 1 27
-4 0 -7 22 -7 49 0 27 2 48 5 46 7 -4 4 65 -3 71 -3 3 -1 19 3 35 5 17 5 31
-1 35 -5 3 -7 14 -4 24 3 9 5 33 5 51 0 19 -1 60 -1 91 0 32 2 62 6 68 3 5 3
10 -2 10 -4 0 -8 22 -8 49 0 27 2 48 5 46 7 -4 4 65 -3 71 -3 3 -1 19 3 35 5
17 5 31 -1 35 -5 3 -7 14 -4 24 3 9 5 33 5 51 0 19 -1 60 -1 91 0 32 2 62 6
68 3 5 3 10 -2 10 -8 0 -8 83 0 105 3 6 -4 17 -14 23 -14 9 -19 9 -19 1 0 -8
-4 -8 -13 -1 -8 7 -18 7 -27 2 -8 -5 -21 -5 -29 -2 -20 9 -42 9 -58 -1 -7 -5
-13 -4 -13 1 0 6 -14 7 -34 2 -19 -4 -39 -4 -46 0 -6 4 -24 5 -38 3 -31 -5
-38 -5 -72 0 -14 2 -31 -1 -37 -6 -9 -6 -13 -5 -13 2 0 9 -5 9 -20 1 -11 -6
-20 -7 -20 -2 0 10 -42 8 -59 -2 -5 -4 -12 -2 -16 4 -4 7 -12 7 -24 0 -10 -5
-21 -7 -24 -3 -10 10 -51 10 -64 0 -8 -6 -13 -6 -13 1 0 6 -13 7 -34 2 -19 -4
-39 -4 -46 0 -6 4 -24 5 -38 3 -31 -5 -38 -5 -72 0 -14 2 -31 -1 -37 -6 -9 -6
-13 -5 -13 2 0 9 -5 9 -20 1 -11 -6 -20 -7 -20 -2 0 10 -42 8 -59 -2 -5 -4
-12 -2 -16 4 -4 7 -12 7 -24 0 -10 -5 -21 -7 -24 -3 -10 10 -51 10 -64 0 -8
-6 -13 -6 -13 1 0 6 -13 7 -34 2 -19 -4 -39 -4 -46 0 -6 4 -24 5 -38 3 -31 -5
-38 -5 -72 0 -14 2 -31 -1 -37 -6 -9 -6 -13 -5 -13 2 0 9 -5 9 -20 1 -11 -6
-20 -7 -20 -2 0 10 -48 8 -57 -2 -3 -3 -14 -1 -24 5 -13 6 -19 6 -19 -1z"/>
<path d="M9357 2464 c-1 -2 -18 -5 -37 -8 -68 -9 -170 -50 -170 -68 0 -5 -5
-8 -11 -8 -21 0 -90 -86 -121 -150 -30 -62 -32 -71 -33 -185 0 -116 1 -122 33
-188 73 -149 208 -232 369 -226 181 7 316 116 373 302 19 60 13 181 -11 259
-12 37 -26 68 -30 68 -5 0 -9 6 -9 13 0 21 -91 111 -140 139 -25 14 -58 29
-75 33 -39 9 -134 22 -138 19z m95 -182 c7 -7 18 -12 25 -12 14 0 61 -44 84
-80 14 -21 31 -74 33 -102 1 -3 4 -10 8 -13 4 -4 3 -16 -2 -26 -7 -12 -7 -20
0 -24 6 -4 7 -12 3 -18 -4 -7 -8 -14 -9 -17 -8 -47 -32 -95 -66 -132 -105
-110 -282 -76 -353 67 -24 50 -30 173 -9 213 8 15 14 33 14 40 0 6 5 12 10 12
6 0 10 6 10 13 0 19 43 55 90 76 47 21 142 23 162 3z"/>
<path d="M399 2441 c-5 -36 -3 -770 3 -781 5 -14 36 -16 210 -15 202 1 283 8
294 26 3 5 12 9 20 9 22 0 72 53 90 96 18 42 20 149 5 168 -6 7 -9 15 -6 18 8
8 -75 88 -91 88 -23 0 -16 23 16 53 53 50 65 172 24 242 -20 36 -76 79 -119
90 -35 10 -445 15 -446 6z m195 -152 c4 6 12 9 18 5 5 -3 43 -6 84 -6 67 0 76
-2 104 -28 45 -42 37 -100 -18 -122 -26 -10 -195 -19 -217 -11 -6 2 -10 35 -9
76 1 76 10 110 24 87 5 -9 9 -9 14 -1z m230 -328 c25 -14 46 -50 46 -81 0 -30
-42 -71 -75 -73 -17 -2 -35 -6 -42 -10 -6 -4 -15 -2 -19 4 -4 8 -9 7 -15 -2
-5 -8 -9 -9 -9 -3 0 11 -52 10 -71 -1 -5 -4 -9 -1 -9 5 0 7 -6 8 -18 1 -11 -6
-24 -5 -37 2 -18 10 -21 22 -21 87 0 41 4 78 9 81 16 11 236 3 261 -10z"/>
<path d="M1156 2441 c-1 -3 -2 -127 -1 -276 1 -232 4 -278 20 -325 46 -140
135 -203 296 -209 121 -4 232 45 274 122 11 20 23 37 28 37 4 0 6 4 2 9 -3 5
-1 12 5 16 6 4 8 11 5 16 -4 5 -3 9 2 9 13 0 16 69 17 345 l1 260 -77 0 c-43
1 -78 -3 -78 -7 0 -17 -2 -23 -12 -35 -6 -7 -6 -13 -2 -13 5 0 10 -22 10 -50
0 -27 -4 -50 -9 -50 -4 0 -5 -5 -2 -11 13 -20 14 -89 2 -89 -8 0 -8 -3 -2 -8
12 -9 15 -122 3 -122 -5 0 -5 -8 0 -17 9 -18 7 -88 -3 -133 -10 -39 -56 -100
-76 -100 -10 0 -21 -5 -24 -10 -8 -14 -60 -11 -115 6 -36 11 -50 23 -72 59
-15 25 -23 45 -17 45 6 0 6 7 2 18 -5 9 -8 31 -8 47 0 17 -4 33 -10 37 -7 5
-7 8 1 8 11 0 12 129 0 148 -3 6 -2 13 3 16 5 4 7 25 5 49 -5 47 -5 47 0 100
2 21 -1 40 -5 43 -5 3 -5 13 -1 22 20 41 11 47 -76 48 -45 1 -84 -2 -86 -5z"/>
<path d="M1979 2446 c-1 0 -3 -180 -3 -398 -1 -270 1 -398 9 -399 5 -1 43 -2
83 -3 l72 -1 0 60 c0 33 1 67 1 75 1 8 -1 27 -4 42 -3 15 -2 30 3 33 4 3 6 13
3 23 -4 17 2 18 61 18 63 -1 66 -2 83 -33 10 -18 21 -33 26 -33 4 0 6 -4 3 -8
-3 -5 6 -21 19 -36 14 -16 27 -37 31 -48 3 -11 12 -28 20 -37 7 -9 19 -24 27
-34 7 -10 19 -19 27 -20 8 -2 21 -7 29 -11 9 -6 12 -5 8 1 -4 6 17 9 58 8 78
-2 91 4 67 31 -10 11 -31 42 -47 69 -16 28 -33 52 -37 53 -4 2 -8 8 -8 13 0 5
-16 33 -35 61 -34 51 -36 68 -10 68 8 0 21 10 29 22 9 12 16 19 16 15 0 -5 7
-2 15 7 9 8 15 18 15 22 -1 3 5 11 13 17 43 34 57 194 24 270 -9 20 -16 40
-16 43 1 13 -69 68 -111 87 -41 19 -66 21 -257 23 -117 0 -214 1 -214 0z m296
-156 c4 7 11 8 18 2 7 -5 21 -8 32 -6 10 1 25 -2 32 -8 7 -6 13 -7 13 -2 0 4
11 -3 25 -16 48 -45 42 -150 -10 -184 -14 -9 -25 -14 -25 -10 0 4 -6 2 -12 -3
-7 -5 -56 -9 -108 -8 l-95 0 -3 117 -3 117 53 3 c29 2 58 -1 65 -5 6 -4 14 -3
18 3z"/>
<path d="M2747 2436 c-2 -6 -3 -186 -3 -401 l1 -390 270 0 269 0 1 72 c0 55
-4 74 -15 79 -14 6 -47 9 -52 4 -8 -6 -48 -6 -48 0 0 11 -74 6 -83 -5 -6 -7
-10 -6 -13 1 -5 11 -67 10 -86 -2 -7 -4 -8 -3 -4 4 5 9 0 9 -18 2 -16 -6 -26
-6 -26 0 0 5 -7 7 -15 4 -13 -5 -15 34 -15 318 l0 324 -79 1 c-51 0 -81 -4
-84 -11z"/>
<path d="M3340 2438 c0 -5 28 -56 63 -114 34 -57 76 -129 92 -159 17 -30 36
-60 43 -67 7 -7 12 -16 12 -20 0 -4 15 -31 33 -60 34 -52 34 -54 35 -178 0
-69 1 -141 1 -160 l1 -36 80 1 c64 0 80 3 81 15 0 8 1 80 1 160 0 116 3 148
16 163 8 9 12 17 8 17 -4 0 -2 6 4 13 12 13 17 20 115 189 33 57 63 105 67
106 4 2 8 12 8 23 0 10 4 19 8 19 5 0 17 17 28 38 10 20 23 40 29 44 16 12
-17 17 -95 14 -76 -2 -114 -12 -105 -26 3 -4 -2 -13 -10 -20 -8 -7 -15 -21
-15 -31 0 -11 -4 -19 -8 -19 -8 0 -35 -46 -36 -63 -1 -4 -5 -11 -11 -15 -5 -4
-19 -25 -30 -47 -11 -22 -27 -53 -36 -68 l-16 -28 -23 38 c-12 21 -38 67 -58
103 -19 36 -39 67 -43 68 -5 2 -7 7 -5 11 3 4 -8 27 -23 51 l-28 45 -91 0
c-51 1 -92 -3 -92 -7z"/>
<path d="M4490 2046 l0 -401 80 -1 80 0 0 56 c0 30 1 142 1 248 1 146 4 190
13 183 6 -5 38 -49 71 -98 33 -48 65 -93 70 -100 6 -7 16 -19 23 -27 6 -8 12
-18 12 -21 0 -3 5 -11 11 -18 8 -10 66 -89 145 -201 18 -27 150 -33 156 -7 3
13 2 743 -1 777 -1 7 -29 11 -78 10 l-78 -1 -5 -244 -5 -244 -40 58 c-22 32
-44 66 -50 76 -5 11 -13 19 -17 19 -5 0 -8 5 -8 10 0 11 -10 24 -42 61 -10 10
-18 24 -18 29 0 6 -4 10 -10 10 -5 0 -10 6 -10 13 0 8 -9 22 -20 32 -11 10
-20 22 -20 27 0 5 -6 16 -12 23 -19 21 -30 36 -62 83 -16 23 -31 43 -35 43 -3
1 -39 3 -78 4 l-73 2 0 -401z"/>
<path d="M5322 2420 c1 -15 -2 -32 -6 -39 -4 -6 -3 -11 2 -11 10 0 9 -30 -2
-48 -4 -6 -3 -12 2 -12 9 0 7 -51 -3 -78 -3 -7 0 -10 5 -7 7 4 7 -3 0 -19 -5
-14 -6 -28 -1 -30 5 -3 7 -18 4 -33 -9 -63 -9 -84 -1 -89 5 -3 4 -12 -2 -19
-8 -10 -8 -15 0 -20 8 -5 8 -11 -1 -21 -6 -8 -8 -14 -3 -14 5 0 9 -19 8 -42
-1 -24 1 -47 4 -53 3 -5 7 -20 8 -32 2 -13 10 -38 20 -56 9 -17 22 -42 28 -53
14 -30 90 -79 151 -100 67 -22 191 -15 263 16 28 12 52 26 52 31 0 5 6 9 13 9
22 0 85 108 97 165 9 44 15 340 11 541 l-1 42 -80 -1 -80 -1 -1 -30 c0 -17 -2
-139 -4 -271 -4 -261 -4 -265 -17 -265 -4 0 -8 -6 -8 -14 0 -18 -59 -68 -71
-60 -5 3 -9 1 -9 -4 0 -11 -97 -8 -125 3 -27 12 -40 26 -66 71 -22 38 -22 49
-23 302 0 144 -3 263 -6 263 -3 1 -40 3 -82 4 l-77 2 1 -27z"/>
<path d="M6089 2446 c-4 -3 -4 -156 1 -157 3 -1 52 -2 110 -3 l105 -1 0 -33
c0 -17 2 -32 5 -32 6 0 2 -357 -4 -382 -2 -10 -1 -18 2 -18 4 0 6 -40 4 -88
l-3 -88 83 1 83 0 2 310 c1 171 2 315 2 320 1 6 45 10 114 10 l112 0 1 81 0
80 -308 0 c-169 0 -309 0 -309 0z"/>
<path d="M6838 2446 c0 -1 -2 -180 -3 -398 -2 -282 1 -398 9 -401 6 -2 43 -3
81 -3 l70 1 2 115 c0 63 2 120 2 126 1 11 126 14 133 4 2 -3 13 -22 23 -42 11
-21 23 -38 27 -38 5 0 8 -6 9 -12 0 -7 21 -44 47 -83 l47 -70 93 0 c50 -1 92
3 92 7 0 8 -68 116 -80 128 -5 5 -26 41 -45 76 -6 12 -18 29 -28 38 -22 22
-22 35 1 43 34 13 95 79 114 123 41 93 25 234 -34 301 -28 30 -82 64 -123 74
-23 6 -428 16 -437 11z m287 -157 c121 -3 164 -37 161 -127 -1 -35 -8 -49 -35
-74 -32 -30 -35 -31 -142 -32 -69 -1 -109 2 -110 9 -1 12 -1 195 0 214 1 7 7
11 16 7 8 -3 15 -1 15 5 0 6 4 8 8 5 5 -3 44 -6 87 -7z"/>
<path d="M7610 2048 c0 -219 3 -398 8 -399 4 -1 39 -2 79 -4 66 -2 71 -1 75
19 2 11 3 192 3 401 l0 380 -83 1 -82 1 0 -399z"/>
<path d="M7915 2443 c-11 -3 -12 -133 -2 -149 3 -5 53 -9 111 -9 65 1 107 -3
108 -10 2 -5 3 -148 2 -317 0 -170 2 -308 5 -309 3 -1 41 -2 83 -4 77 -2 78
-2 74 21 -3 13 -2 26 2 28 4 2 5 68 2 146 -3 78 -3 143 0 145 3 2 3 56 0 120
-3 64 -2 119 1 121 3 2 4 16 2 31 l-5 28 114 0 113 0 2 81 2 81 -303 0 c-166
-1 -306 -2 -311 -4z"/>
<path d="M8658 2418 c-3 -15 -1 -28 3 -28 7 0 4 -40 -6 -67 -2 -7 0 -13 5 -13
8 0 5 -38 -5 -67 -2 -7 -1 -13 3 -13 4 0 7 -27 7 -60 0 -33 -4 -60 -8 -60 -4
0 -4 -8 2 -17 5 -10 5 -26 0 -40 -5 -13 -5 -23 -1 -23 4 0 7 -36 7 -80 0 -44
-4 -80 -8 -80 -4 0 -4 -8 2 -17 5 -10 5 -26 0 -40 -5 -13 -5 -23 -1 -23 4 0 6
-31 5 -70 -1 -38 1 -71 5 -71 19 -4 138 -5 147 -2 7 2 10 141 10 401 l0 397
-82 1 -81 0 -4 -28z"/>
<path d="M9923 2443 c-9 -3 -10 -10 -3 -24 8 -13 7 -19 0 -19 -8 0 -8 -6 0
-20 6 -11 7 -20 2 -20 -9 0 -8 -53 3 -69 3 -6 1 -11 -5 -11 -8 0 -8 -6 0 -20
6 -11 7 -20 3 -20 -10 0 -10 -41 0 -57 4 -7 3 -15 -3 -18 -8 -5 -8 -11 0 -20
8 -9 8 -15 0 -20 -7 -4 -7 -12 0 -26 8 -13 7 -19 0 -19 -8 0 -8 -6 0 -20 6
-11 7 -20 2 -20 -9 0 -8 -53 3 -69 3 -6 1 -11 -5 -11 -7 0 -8 -6 -2 -17 5 -10
6 -27 2 -38 -4 -11 -4 -28 1 -37 6 -10 5 -19 -1 -23 -8 -5 -8 -11 0 -20 8 -9
8 -15 0 -20 -6 -3 -8 -11 -4 -16 8 -14 12 -69 4 -69 -8 0 -4 -59 4 -68 4 -3
41 -6 83 -6 l77 -1 -1 247 c0 204 2 245 13 241 8 -3 11 -9 8 -14 -3 -5 2 -12
10 -15 9 -3 16 -12 16 -20 0 -8 5 -14 10 -14 6 0 10 -6 10 -14 0 -8 4 -16 8
-18 8 -3 70 -88 159 -220 25 -38 50 -68 54 -68 5 0 9 -5 9 -11 0 -7 15 -31 34
-53 33 -40 36 -42 92 -41 33 0 64 3 69 7 6 4 9 145 9 395 -1 213 -2 391 -3
395 -1 3 -36 6 -78 5 -73 -2 -78 -3 -79 -24 -1 -13 -3 -26 -4 -30 -1 -5 -1
-12 0 -18 7 -34 6 -85 -2 -85 -5 0 -6 -5 -2 -11 11 -19 11 -109 0 -109 -7 0
-8 -3 -1 -8 13 -9 16 -72 3 -72 -5 0 -6 -5 -2 -11 9 -15 12 -109 4 -109 -9 0
-45 43 -53 63 -3 9 -11 17 -17 17 -6 0 -8 5 -5 10 3 6 2 10 -3 10 -5 0 -15 12
-23 27 -8 15 -20 34 -27 43 -12 13 -86 117 -124 174 -7 10 -19 24 -25 32 -7 7
-13 16 -13 21 -1 4 -14 24 -31 43 -28 33 -33 35 -97 36 -37 0 -73 -1 -79 -3z"/>
</g>
</svg>
